# xmcd
#
# Track frame offsets:
#	150
#	17168
#	36449
#	57278
#	66967
#	94296
#	110360
#	128193
#	147621
#	161794
#
# Disc length: 2528 seconds
#
# Revision: 0
# Processed by: cddbd v1.5.2PL0 Copyright (c) Steve Scherf et al.
# Submitted via: audiograbber 1.83.01
#
DISCID=9609de0a
DTITLE=Non-Fiction - Preface
DYEAR=1991
DGENRE=Heavy Metal
TTITLE0=The My Way
TTITLE1=Listen
TTITLE2=Mortify Me
TTITLE3=Could've
TTITLE4=Aged
TTITLE5=Put If Off
TTITLE6=Not A Part Of Your Life
TTITLE7=Down
TTITLE8=I Hate To Tell You
TTITLE9=Farewell To Welfare
EXTD=
EXTT0=
EXTT1=
EXTT2=
EXTT3=
EXTT4=
EXTT5=
EXTT6=
EXTT7=
EXTT8=
EXTT9=
PLAYORDER=
